<?xml version="1.0" encoding="UTF-8"?>
<svg width="85px" height="84px" viewBox="0 0 85 84" version="1.1" xmlns="http://www.w3.org/2000/svg" xmlns:xlink="http://www.w3.org/1999/xlink">
    <!-- Generator: Sketch 57.1 (83088) - https://sketch.com -->
    <title>28dp_layout</title>
    <desc>Created with Sketch.</desc>
    <g id="图标设计" stroke="none" stroke-width="1" fill="none" fill-rule="evenodd">
        <g id="图标" transform="translate(-497.000000, -4140.000000)" fill="#F7657C">
            <g id="设置图标" transform="translate(155.000000, 4009.000000)">
                <g id="Group-9" transform="translate(0.000000, 129.000000)">
                    <g id="布局" transform="translate(352.212464, 12.000000)">
                        <path d="M44,0 C45.6568542,0 47,1.34314575 47,3 L47,41 L61,41 C62.6568542,41 64,42.3431458 64,44 C64,45.6568542 62.6568542,47 61,47 L47,47 L47,61 C47,62.6568542 45.6568542,64 44,64 C42.3431458,64 41,62.6568542 41,61 L41,47 L3,47 C1.34314575,47 0,45.6568542 0,44 C0,42.3431458 1.34314575,41 3,41 L41,41 L41,3 C41,1.34314575 42.3431458,0 44,0 Z" id="路径" opacity="0.6"></path>
                        <path d="M20,0 C21.6568542,0 23,1.34314575 23,3 L22.999,17 L61,17 C62.6568542,17 64,18.3431458 64,20 C64,21.6568542 62.6568542,23 61,23 L22.999,23 L23,61 C23,62.6568542 21.6568542,64 20,64 C18.3431458,64 17,62.6568542 17,61 L16.999,23 L3,23 C1.34314575,23 0,21.6568542 0,20 C0,18.3431458 1.34314575,17 3,17 L16.999,17 L17,3 C17,1.34314575 18.3431458,0 20,0 Z" id="路径"></path>
                    </g>
                </g>
            </g>
        </g>
    </g>
</svg>